<svg viewBox="0 0 549 161" fill="none" xmlns="http://www.w3.org/2000/svg">
<g clip-path="url(#clip0_6_64)">
<mask id="mask0_6_64" style="mask-type:luminance" maskUnits="userSpaceOnUse" x="0" y="0" width="335" height="163">
<path d="M0 0H334.86V162.229H0V0Z" fill="white"/>
</mask>
<g mask="url(#mask0_6_64)">
<path d="M0 -81.207H334.86V243.25H0V-81.207Z" fill="#D2C2B0"/>
</g>
<path d="M460.336 92.8402C460.336 83.4381 463.139 75.556 468.278 70.0291C473.414 64.507 480.928 61.2871 490.453 61.2871C499.918 61.2871 507.431 64.5065 512.581 70.0296C517.734 75.5571 520.564 83.4394 520.564 92.8402C520.564 102.241 517.734 110.152 512.58 115.708C507.43 121.259 499.917 124.506 490.453 124.506C480.929 124.506 473.415 121.259 468.279 115.708C463.139 110.153 460.336 102.242 460.336 92.8402ZM476.878 92.8402C476.878 99.2457 478.112 104.308 480.434 107.784C482.773 111.285 486.197 113.144 490.453 113.144C494.652 113.144 498.048 111.282 500.372 107.783C502.68 104.307 503.915 99.2459 503.915 92.8402C503.915 86.4346 502.68 81.4018 500.371 77.9549C498.045 74.4838 494.649 72.6544 490.453 72.6544C486.2 72.6544 482.776 74.4816 480.435 77.9538C478.112 81.4013 476.878 86.4349 476.878 92.8402Z" fill="current-color"/>
<path d="M439.311 70.4054V39.7687H455.414V122.904H439.311V114.246V112.549L438.391 113.975L434.081 120.658C430.93 123.158 425.331 124.506 419.531 124.506C411.672 124.506 405.388 121.365 401.06 116.019C396.722 110.663 394.32 103.057 394.32 94.0994C394.32 83.266 397.478 75.0659 402.431 69.5804C407.383 64.0966 414.164 61.2872 421.494 61.2872C423.851 61.2872 426.454 61.5971 428.83 62.147C431.16 62.6864 433.232 63.4479 434.632 64.3467L438.381 70.6607L439.311 72.2267V70.4054ZM410.862 93.0708C410.862 99.1502 412.266 104.154 414.738 107.653C417.219 111.165 420.77 113.144 424.977 113.144C428.959 113.144 432.573 111.843 435.18 108.7C437.774 105.571 439.311 100.689 439.311 93.6442V90.7771C439.311 84.1683 437.573 79.6291 434.949 76.737C432.322 73.8429 428.857 72.6544 425.523 72.6544C421.237 72.6544 417.545 74.3809 414.94 77.8322C412.347 81.2673 410.862 86.3661 410.862 93.0708Z" fill="current-color"/>
<path d="M358.93 99.7594L358.561 99.2485L358.147 99.7248L353.68 104.874L353.558 105.015V105.202V122.904H337.455V39.7687H353.558V89.175V90.5711L354.444 89.4924L376.303 62.8892H395.209L370.788 90.2193L370.511 90.5299L370.766 90.8589L395.632 122.904H375.67L358.93 99.7594Z" fill="current-color"/>
<path d="M285.277 80.0178C285.277 74.216 287.607 69.5552 291.704 66.3329C295.814 63.1007 301.741 61.2871 308.963 61.2871C315.887 61.2871 321.291 63.3161 325.135 66.6727C328.846 69.9139 331.137 74.4243 331.917 79.636H316.015C315.499 77.2504 314.622 75.3159 313.325 73.9536C311.943 72.501 310.12 71.738 307.872 71.738C305.91 71.738 304.282 72.3758 303.14 73.4791C301.998 74.5826 301.38 76.1178 301.38 77.8423C301.38 78.9405 301.591 79.9431 302.096 80.8679C302.6 81.7905 303.38 82.6037 304.469 83.3518C306.63 84.8357 310.082 86.1107 315.26 87.4828C320.841 88.965 325.346 90.914 328.455 93.8622C331.543 96.79 333.296 100.745 333.296 106.348C333.296 112.533 330.63 117.045 326.31 120.03C321.968 123.03 315.924 124.506 309.177 124.506C301.839 124.506 295.662 122.861 291.143 119.565C286.762 116.37 283.894 111.59 283.051 105.128H298.975C299.626 107.893 300.916 110.064 302.659 111.562C304.485 113.134 306.782 113.942 309.289 113.942C311.421 113.942 313.385 113.473 314.831 112.45C316.298 111.412 317.193 109.829 317.193 107.72C317.193 106.557 316.945 105.503 316.388 104.54C315.832 103.58 314.988 102.741 313.838 101.981C311.556 100.471 307.998 99.2258 302.875 97.9658C297.467 96.5446 293.067 94.5686 290.023 91.7032C286.997 88.8548 285.277 85.0965 285.277 80.0178Z" fill="current-color"/>
<path d="M262.228 86.5891H262.728V86.0891V85.0545V85.049C262.728 83.449 262.728 81.8261 262.506 79.7445C262.333 77.807 261.551 76.0249 260.11 74.7277C258.666 73.4284 256.605 72.6544 253.947 72.6544C251.163 72.6544 248.947 73.5531 247.378 75.2928C245.9 76.9329 245.044 79.2673 244.772 82.1544H229.411C229.696 75.5594 232.487 70.407 236.873 66.8716C241.381 63.2371 247.608 61.2871 254.599 61.2871C263.137 61.2871 268.857 63.246 272.546 66.4722C276.229 69.6936 277.964 74.2459 278.394 79.6011C278.612 82.4461 278.719 85.8674 278.719 89.4055V107.95C278.719 112.42 278.928 116.464 279.742 122.904H264.078L262.938 114.41L262.685 112.526L261.978 114.291L259.426 120.666C255.409 123.292 250.655 124.506 245.451 124.506C240.652 124.506 236.118 122.965 232.791 120.037C229.472 117.116 227.324 112.79 227.324 107.146C227.324 100.671 230.048 95.5639 235.272 92.0537C240.521 88.526 248.333 86.5891 258.521 86.5891H262.228ZM262.728 96.7301V96.2716L262.271 96.232C256.948 95.7705 252.379 96.2234 249.119 97.7368C247.483 98.4964 246.163 99.5298 245.253 100.861C244.341 102.194 243.86 103.798 243.86 105.663C243.86 108.074 244.698 109.967 246.202 111.25C247.693 112.522 249.782 113.144 252.203 113.144C254.889 113.144 257.528 112.123 259.494 110.104C261.463 108.081 262.728 105.089 262.728 101.199V96.7301Z" fill="current-color"/>
<path d="M188.102 58.387V57.887H187.602H163.049V44.9177H229.156V57.887H204.598H204.098V58.387V122.904H188.102V58.387Z" fill="current-color"/>
</g>
<defs>
<clipPath id="clip0_6_64">
<rect width="549" height="161" fill="white"/>
</clipPath>
</defs>
</svg>
